<svg width="208" height="193" viewBox="0 0 208 193" fill="none" xmlns="http://www.w3.org/2000/svg">
<path d="M180 34.14H77.2197V114.56H206.93V59C206.93 45.29 194.87 34.14 180 34.14Z" fill="#019161"/>
<path d="M206.93 115H77.22C77.0998 114.997 76.9853 114.948 76.9012 114.862C76.8171 114.776 76.77 114.66 76.77 114.54V34.14C76.77 34.0207 76.8174 33.9062 76.9018 33.8218C76.9862 33.7374 77.1007 33.69 77.22 33.69H180C195.1 33.69 207.39 45.06 207.39 59.03V114.56C207.383 114.678 207.331 114.788 207.246 114.87C207.161 114.951 207.048 114.998 206.93 115ZM77.68 114.08H206.47V59C206.47 45.53 194.6 34.57 180 34.57H77.68V114.08Z" fill="#093269"/>
<path d="M104.15 115.07H50.29C50.1582 115.067 50.0326 115.014 49.9393 114.921C49.8461 114.827 49.7926 114.702 49.79 114.57V60C49.7927 53.0017 52.5739 46.2909 57.5224 41.3424C62.4709 36.3939 69.1818 33.6127 76.18 33.61H78.48C83.7905 33.6591 88.9628 35.3073 93.3225 38.3398C97.6822 41.3723 101.027 45.6483 102.92 50.61C103.322 51.5857 103.656 52.5881 103.92 53.61C103.962 53.7398 103.989 53.874 104 54.01C104.465 55.9522 104.696 57.9429 104.69 59.94V114.48C104.704 114.556 104.701 114.635 104.68 114.709C104.658 114.784 104.62 114.853 104.567 114.91C104.515 114.967 104.45 115.011 104.378 115.039C104.305 115.067 104.227 115.078 104.15 115.07ZM50.79 114.07H103.65V60C103.653 58.0571 103.429 56.1205 102.98 54.23C102.988 54.1502 102.988 54.0698 102.98 53.99V53.88C102.713 52.9008 102.386 51.939 102 51C100.172 46.2318 96.9504 42.1243 92.7556 39.2119C88.5608 36.2994 83.5866 34.7168 78.48 34.67H76.19C72.8585 34.6634 69.5584 35.3136 66.4783 36.5834C63.3982 37.8531 60.5986 39.7176 58.2396 42.0701C55.8806 44.4226 54.0085 47.217 52.7302 50.2936C51.452 53.3701 50.7927 56.6685 50.79 60V114.07Z" fill="#093269"/>
<path d="M50.3 114.56H104.15V162.28C104.15 168.788 101.565 175.03 96.9624 179.632C92.3603 184.235 86.1185 186.82 79.61 186.82H74.83C68.3216 186.82 62.0798 184.235 57.4776 179.632C52.8755 175.03 50.29 168.788 50.29 162.28V114.56H50.3Z" fill="white"/>
<path d="M79.6098 187.28H74.8398C68.2094 187.28 61.8506 184.646 57.1622 179.958C52.4738 175.269 49.8398 168.91 49.8398 162.28V114.56C49.8424 114.439 49.8917 114.323 49.9774 114.238C50.0631 114.152 50.1787 114.103 50.2999 114.1H104.15C104.271 114.103 104.387 114.152 104.472 114.238C104.558 114.323 104.607 114.439 104.61 114.56V162.28C104.61 168.91 101.976 175.269 97.2875 179.958C92.5991 184.646 86.2403 187.28 79.6098 187.28ZM50.7498 115V162.26C50.7578 168.646 53.2987 174.767 57.815 179.282C62.3313 183.796 68.4541 186.335 74.8398 186.34H79.6098C85.9946 186.335 92.1164 183.796 96.6311 179.281C101.146 174.767 103.685 168.645 103.69 162.26V115H50.7498Z" fill="#093269"/>
<path d="M90.5299 158.29H63.9199C63.7873 158.29 63.6601 158.237 63.5664 158.144C63.4726 158.05 63.4199 157.923 63.4199 157.79C63.4199 157.657 63.4726 157.53 63.5664 157.436C63.6601 157.343 63.7873 157.29 63.9199 157.29H90.5299C90.6625 157.29 90.7897 157.343 90.8835 157.436C90.9773 157.53 91.0299 157.657 91.0299 157.79C91.0299 157.923 90.9773 158.05 90.8835 158.144C90.7897 158.237 90.6625 158.29 90.5299 158.29Z" fill="#8BCEAF"/>
<path d="M133.06 74.6C135.904 74.6 138.21 72.2943 138.21 69.45C138.21 66.6057 135.904 64.3 133.06 64.3C130.215 64.3 127.91 66.6057 127.91 69.45C127.91 72.2943 130.215 74.6 133.06 74.6Z" fill="white"/>
<path d="M133.06 75.05C131.95 75.052 130.864 74.7244 129.939 74.1087C129.015 73.4931 128.295 72.617 127.869 71.5915C127.443 70.566 127.331 69.4372 127.547 68.348C127.763 67.2588 128.298 66.2583 129.083 65.4731C129.868 64.688 130.869 64.1535 131.958 63.9373C133.047 63.7212 134.176 63.8331 135.201 64.259C136.227 64.6848 137.103 65.4054 137.719 66.3295C138.334 67.2536 138.662 68.3396 138.66 69.45C138.657 70.9344 138.066 72.3573 137.017 73.4069C135.967 74.4565 134.544 75.0474 133.06 75.05ZM133.06 64.76C132.132 64.76 131.226 65.0351 130.454 65.5504C129.683 66.0658 129.082 66.7982 128.727 67.6552C128.372 68.5122 128.279 69.4552 128.46 70.365C128.641 71.2748 129.088 72.1104 129.744 72.7663C130.4 73.4223 131.235 73.8689 132.145 74.0499C133.055 74.2309 133.998 74.138 134.855 73.783C135.712 73.428 136.444 72.8269 136.96 72.0556C137.475 71.2844 137.75 70.3776 137.75 69.45C137.75 68.8341 137.629 68.2242 137.393 67.6552C137.157 67.0862 136.812 66.5692 136.376 66.1337C135.941 65.6982 135.424 65.3527 134.855 65.117C134.286 64.8813 133.676 64.76 133.06 64.76Z" fill="#093269"/>
<path d="M133.06 64.76C132.938 64.7575 132.823 64.7082 132.737 64.6225C132.651 64.5367 132.602 64.4212 132.6 64.3V0.940002C132.602 0.819744 132.652 0.705297 132.738 0.621182C132.824 0.537066 132.939 0.489977 133.06 0.490006C133.179 0.490006 133.293 0.537416 133.378 0.621807C133.462 0.706198 133.51 0.820655 133.51 0.940002V64.3C133.51 64.4203 133.463 64.5358 133.378 64.6218C133.294 64.7078 133.18 64.7574 133.06 64.76Z" fill="#093269"/>
<path d="M151.99 5.73L133.06 14.25V0.940002H151.99V5.73Z" fill="white"/>
<path d="M133.06 14.75C132.964 14.7498 132.87 14.722 132.79 14.67C132.718 14.6263 132.659 14.5644 132.619 14.4907C132.578 14.417 132.558 14.334 132.56 14.25V0.940002C132.56 0.807394 132.612 0.680217 132.706 0.586449C132.8 0.49268 132.927 0.440002 133.06 0.440002H152C152.131 0.442563 152.257 0.496064 152.35 0.589283C152.444 0.682502 152.497 0.808196 152.5 0.940002V5.72001C152.499 5.81731 152.47 5.91232 152.417 5.99383C152.364 6.07534 152.288 6.13994 152.2 6.18L133.26 14.7C133.198 14.7316 133.129 14.7487 133.06 14.75ZM133.56 1.44V13.44L151.49 5.37V1.37L133.56 1.44Z" fill="#093269"/>
<path d="M143.83 114.56H122.13V119.74H143.83V114.56Z" fill="white"/>
<path d="M143.83 120.19H122.13C122.01 120.19 121.894 120.143 121.808 120.059C121.722 119.975 121.673 119.86 121.67 119.74V114.56C121.672 114.439 121.722 114.323 121.807 114.238C121.893 114.152 122.009 114.103 122.13 114.1H143.83C143.951 114.103 144.067 114.152 144.152 114.238C144.238 114.323 144.287 114.439 144.29 114.56V119.74C144.287 119.86 144.238 119.975 144.152 120.059C144.066 120.143 143.95 120.19 143.83 120.19ZM122.59 119.28H143.37V115H122.59V119.28Z" fill="#093269"/>
<path d="M125.62 192.23V119.74H138.68V192.23" fill="white"/>
<path d="M138.68 192.69C138.56 192.687 138.445 192.638 138.361 192.552C138.277 192.466 138.23 192.35 138.23 192.23V120.23H126.07V192.23C126.08 192.295 126.075 192.362 126.057 192.426C126.038 192.489 126.006 192.548 125.963 192.598C125.92 192.648 125.866 192.688 125.806 192.716C125.746 192.743 125.681 192.758 125.615 192.758C125.549 192.758 125.483 192.743 125.423 192.716C125.363 192.688 125.31 192.648 125.266 192.598C125.223 192.548 125.191 192.489 125.173 192.426C125.155 192.362 125.15 192.295 125.16 192.23V119.74C125.16 119.68 125.172 119.62 125.195 119.564C125.218 119.508 125.252 119.457 125.295 119.415C125.337 119.372 125.388 119.338 125.444 119.315C125.5 119.292 125.559 119.28 125.62 119.28H138.68C138.74 119.28 138.8 119.292 138.856 119.315C138.912 119.338 138.962 119.372 139.005 119.415C139.048 119.457 139.082 119.508 139.105 119.564C139.128 119.62 139.14 119.68 139.14 119.74V192.23C139.14 192.29 139.128 192.35 139.105 192.406C139.082 192.462 139.048 192.513 139.005 192.555C138.962 192.598 138.912 192.632 138.856 192.655C138.8 192.678 138.74 192.69 138.68 192.69Z" fill="#093269"/>
<path d="M125.62 131.06L138.68 140.67V119.74H125.62V131.06Z" fill="#093269"/>
<path d="M138.68 141.17C138.576 141.171 138.475 141.139 138.39 141.08L125.32 131.47C125.258 131.423 125.208 131.362 125.173 131.293C125.139 131.224 125.12 131.147 125.12 131.07V119.74C125.12 119.607 125.172 119.48 125.266 119.386C125.36 119.293 125.487 119.24 125.62 119.24H138.68C138.812 119.24 138.939 119.293 139.033 119.386C139.127 119.48 139.18 119.607 139.18 119.74V140.67C139.182 140.763 139.158 140.855 139.11 140.934C139.062 141.014 138.993 141.078 138.91 141.12C138.839 141.156 138.759 141.174 138.68 141.17ZM126.12 130.81L138.18 139.69V120.24H126.12V130.81Z" fill="#093269"/>
<path d="M81.8398 82.21H81.7498L80.7498 82.03C80.6841 82.0188 80.6213 81.9949 80.5649 81.9594C80.5085 81.924 80.4597 81.8778 80.4211 81.8235C80.3826 81.7691 80.3552 81.7077 80.3403 81.6428C80.3255 81.5779 80.3237 81.5107 80.3348 81.445C80.346 81.3793 80.37 81.3165 80.4054 81.2601C80.4408 81.2037 80.487 81.1549 80.5414 81.1163C80.5957 81.0778 80.6571 81.0504 80.722 81.0355C80.7869 81.0207 80.8541 81.0188 80.9198 81.03L81.9198 81.2C82.0503 81.2266 82.1652 81.3033 82.24 81.4135C82.3147 81.5238 82.3434 81.6589 82.3198 81.79C82.3031 81.9058 82.2455 82.0118 82.1575 82.0888C82.0695 82.1658 81.9568 82.2088 81.8398 82.21Z" fill="#8BCEAF"/>
<path d="M13.88 115.61C13.8141 115.624 13.746 115.624 13.68 115.61C13.6195 115.584 13.5647 115.546 13.5188 115.499C13.473 115.451 13.4369 115.395 13.4127 115.334C13.3886 115.273 13.3768 115.207 13.378 115.141C13.3793 115.075 13.3936 115.01 13.42 114.95C13.69 114.33 13.98 113.72 14.28 113.11C14.3087 113.051 14.349 112.998 14.3985 112.955C14.448 112.911 14.5058 112.878 14.5683 112.858C14.6309 112.837 14.6969 112.829 14.7625 112.835C14.828 112.841 14.8918 112.859 14.95 112.89C15.0092 112.919 15.0621 112.959 15.1057 113.008C15.1493 113.058 15.1828 113.115 15.2042 113.177C15.2255 113.239 15.2344 113.305 15.2303 113.371C15.2261 113.437 15.209 113.501 15.18 113.56C14.88 114.15 14.6 114.75 14.34 115.35C14.2953 115.432 14.2285 115.5 14.1472 115.546C14.0659 115.592 13.9733 115.614 13.88 115.61ZM15.68 112.03C15.5923 112.027 15.5066 112.003 15.43 111.96C15.3168 111.893 15.2337 111.785 15.1983 111.658C15.1629 111.531 15.1779 111.396 15.24 111.28C15.58 110.69 15.93 110.11 16.3 109.54C16.3749 109.436 16.4867 109.365 16.6125 109.341C16.7383 109.317 16.8684 109.342 16.9761 109.412C17.0838 109.481 17.1608 109.589 17.1913 109.713C17.2218 109.837 17.2035 109.969 17.14 110.08C16.78 110.64 16.44 111.2 16.14 111.77C16.0922 111.847 16.0239 111.91 15.9426 111.95C15.8614 111.991 15.7705 112.008 15.68 112V112.03ZM17.85 108.65C17.7434 108.65 17.6392 108.618 17.55 108.56C17.4446 108.48 17.3741 108.363 17.3536 108.232C17.3331 108.102 17.3641 107.968 17.44 107.86C17.84 107.31 18.25 106.77 18.68 106.25C18.7625 106.147 18.8824 106.081 19.0136 106.066C19.1447 106.051 19.2764 106.088 19.38 106.17C19.4831 106.252 19.5493 106.372 19.5643 106.504C19.5793 106.635 19.5418 106.766 19.46 106.87C19.04 107.39 18.64 107.87 18.25 108.45C18.204 108.513 18.1437 108.564 18.0742 108.598C18.0046 108.633 17.9278 108.651 17.85 108.65ZM39.7 108.58C38.9749 108.525 38.2646 108.345 37.6 108.05C37.478 107.997 37.3821 107.898 37.3333 107.774C37.2846 107.65 37.287 107.512 37.34 107.39C37.3931 107.268 37.4924 107.172 37.6162 107.123C37.74 107.075 37.878 107.077 38 107.13C38.5588 107.383 39.1581 107.536 39.77 107.58C39.8353 107.584 39.8992 107.601 39.9579 107.629C40.0166 107.658 40.0689 107.699 40.1118 107.748C40.1547 107.797 40.1872 107.855 40.2075 107.917C40.2278 107.979 40.2355 108.045 40.23 108.11C40.2276 108.176 40.2117 108.241 40.1834 108.301C40.1551 108.361 40.115 108.414 40.0655 108.458C40.016 108.502 39.958 108.536 39.8952 108.557C39.8324 108.577 39.766 108.585 39.7 108.58ZM41.7 108.34C41.5674 108.36 41.4323 108.326 41.3245 108.247C41.2167 108.167 41.1449 108.048 41.125 107.915C41.1051 107.782 41.1387 107.647 41.2185 107.539C41.2982 107.432 41.4174 107.36 41.55 107.34C42.1139 107.166 42.6304 106.865 43.06 106.46C43.1065 106.413 43.1618 106.376 43.2227 106.351C43.2837 106.325 43.349 106.312 43.415 106.312C43.481 106.312 43.5464 106.325 43.6073 106.351C43.6683 106.376 43.7236 106.413 43.77 106.46C43.8623 106.555 43.9139 106.682 43.9139 106.815C43.9139 106.948 43.8623 107.075 43.77 107.17C43.2247 107.686 42.5677 108.069 41.85 108.29L41.7 108.34ZM36.08 107.04C35.9633 107.045 35.8489 107.006 35.76 106.93C35.2108 106.48 34.7173 105.967 34.29 105.4C34.213 105.293 34.1804 105.16 34.199 105.03C34.2177 104.899 34.2861 104.781 34.39 104.7C34.442 104.659 34.5017 104.63 34.5656 104.612C34.6294 104.595 34.696 104.591 34.7614 104.601C34.8267 104.61 34.8896 104.633 34.946 104.667C35.0025 104.701 35.0515 104.746 35.09 104.8C35.4711 105.301 35.9072 105.757 36.39 106.16C36.4414 106.201 36.4841 106.251 36.5156 106.309C36.5471 106.367 36.5666 106.43 36.5732 106.495C36.5797 106.56 36.573 106.626 36.5536 106.689C36.5342 106.752 36.5024 106.81 36.46 106.86C36.4081 106.912 36.3452 106.951 36.276 106.975C36.2067 107 36.1329 107.008 36.06 107L36.08 107.04ZM44.32 105.59H44.24C44.1099 105.568 43.9933 105.496 43.915 105.39C43.8367 105.283 43.8026 105.151 43.82 105.02C43.8349 104.867 43.8349 104.713 43.82 104.56C43.8148 104.127 43.7371 103.698 43.59 103.29C43.5463 103.157 43.557 103.013 43.6198 102.888C43.6826 102.763 43.7924 102.669 43.925 102.625C44.0576 102.581 44.2022 102.592 44.3269 102.655C44.4516 102.718 44.5463 102.827 44.59 102.96C44.7684 103.475 44.863 104.015 44.87 104.56C44.8845 104.766 44.8845 104.974 44.87 105.18C44.848 105.31 44.7758 105.425 44.6691 105.502C44.5624 105.579 44.4299 105.61 44.3 105.59H44.32ZM20.39 105.54C20.2652 105.537 20.1453 105.491 20.05 105.41C20.0032 105.364 19.966 105.308 19.9406 105.247C19.9152 105.186 19.9021 105.121 19.9021 105.055C19.9021 104.989 19.9152 104.924 19.9406 104.863C19.966 104.802 20.0032 104.746 20.05 104.7C20.5 104.2 20.98 103.7 21.46 103.23C21.5555 103.137 21.684 103.086 21.8171 103.088C21.9503 103.09 22.0772 103.145 22.17 103.24C22.2629 103.335 22.314 103.464 22.3121 103.597C22.3102 103.73 22.2555 103.857 22.16 103.95C21.69 104.41 21.23 104.88 20.79 105.37C20.7384 105.429 20.6734 105.476 20.6004 105.505C20.5274 105.535 20.4485 105.547 20.37 105.54H20.39ZM33.68 103.87C33.5836 103.871 33.4888 103.844 33.4072 103.793C33.3255 103.742 33.2606 103.668 33.22 103.58C32.9296 102.941 32.7181 102.27 32.59 101.58C32.5662 101.447 32.596 101.311 32.6728 101.2C32.7497 101.089 32.8674 101.014 33 100.99C33.1326 100.966 33.2693 100.996 33.3799 101.073C33.4906 101.15 33.5662 101.267 33.59 101.4C33.6966 102.021 33.8814 102.626 34.14 103.2C34.1941 103.321 34.1982 103.458 34.1514 103.582C34.1045 103.705 34.0105 103.805 33.89 103.86C33.8151 103.881 33.7365 103.884 33.66 103.87H33.68ZM23.27 102.74C23.1682 102.739 23.0692 102.707 22.9861 102.648C22.903 102.589 22.8399 102.507 22.8051 102.411C22.7703 102.315 22.7655 102.211 22.7914 102.113C22.8173 102.014 22.8727 101.926 22.95 101.86C23.48 101.42 24.02 100.99 24.57 100.61C24.623 100.572 24.683 100.545 24.7466 100.53C24.8101 100.516 24.876 100.514 24.9403 100.525C25.0045 100.536 25.0659 100.56 25.1208 100.595C25.1757 100.63 25.2231 100.676 25.26 100.73C25.2984 100.784 25.3257 100.845 25.3405 100.909C25.3552 100.973 25.3571 101.04 25.3459 101.105C25.3348 101.17 25.3108 101.232 25.2755 101.288C25.2401 101.344 25.1941 101.392 25.14 101.43C24.62 101.79 24.14 102.2 23.59 102.63C23.4951 102.709 23.3733 102.748 23.25 102.74H23.27ZM43.15 101.86C43.0723 101.861 42.9954 101.843 42.9259 101.808C42.8563 101.774 42.7961 101.723 42.75 101.66C42.3976 101.203 41.9875 100.792 41.53 100.44L41.42 100.36C41.3139 100.28 41.2438 100.162 41.2251 100.031C41.2063 99.8994 41.2405 99.7661 41.32 99.66C41.3997 99.5545 41.5172 99.4841 41.6478 99.4636C41.7784 99.4431 41.9118 99.474 42.02 99.55L42.14 99.64C42.6675 100.049 43.1383 100.527 43.54 101.06C43.5993 101.132 43.6366 101.22 43.6474 101.313C43.6582 101.406 43.6421 101.501 43.6011 101.585C43.5601 101.669 43.4958 101.74 43.4158 101.788C43.3359 101.837 43.2437 101.862 43.15 101.86ZM26.55 100.44C26.4599 100.441 26.3711 100.418 26.2935 100.372C26.2158 100.326 26.1524 100.26 26.11 100.18C26.0479 100.064 26.0329 99.9285 26.0683 99.8018C26.1038 99.6751 26.1868 99.5669 26.3 99.5C26.8959 99.1596 27.5102 98.8524 28.14 98.58C28.2575 98.543 28.3845 98.5507 28.4967 98.6016C28.6088 98.6525 28.6983 98.743 28.7478 98.8557C28.7974 98.9685 28.8036 99.0956 28.7653 99.2126C28.7269 99.3297 28.6467 99.4284 28.54 99.49C27.96 99.75 27.37 100.04 26.79 100.37C26.7134 100.421 26.622 100.446 26.53 100.44H26.55ZM33 100C32.8683 99.9898 32.7457 99.9288 32.658 99.8299C32.5703 99.731 32.5245 99.602 32.53 99.47C32.5832 98.7708 32.7004 98.0779 32.88 97.4C32.8963 97.3362 32.9251 97.2763 32.9646 97.2237C33.0041 97.1711 33.0536 97.1268 33.1103 97.0934C33.167 97.0599 33.2297 97.038 33.2949 97.0288C33.36 97.0197 33.4263 97.0235 33.49 97.04C33.5759 97.0641 33.6541 97.1099 33.7171 97.1729C33.7802 97.236 33.8259 97.3142 33.85 97.4C33.8954 97.3529 33.9498 97.3154 34.0099 97.2896C34.07 97.2638 34.1346 97.2504 34.2 97.25H34.52C35.1049 97.2478 35.6893 97.2812 36.27 97.35C36.4019 97.3675 36.5218 97.4359 36.604 97.5405C36.6862 97.6451 36.7242 97.7777 36.71 97.91C36.6926 98.0412 36.6239 98.1601 36.5189 98.2407C36.4139 98.3213 36.2813 98.357 36.15 98.34C35.6088 98.2796 35.0646 98.2495 34.52 98.25H34.22C34.1261 98.2507 34.0338 98.226 33.9528 98.1785C33.8718 98.1309 33.8052 98.0623 33.76 97.98C33.6443 98.4935 33.5675 99.015 33.53 99.54C33.5198 99.6709 33.4585 99.7925 33.3593 99.8786C33.2601 99.9647 33.1311 100.008 33 100ZM40 99.46C39.9275 99.4751 39.8526 99.4751 39.78 99.46C39.205 99.1802 38.6059 98.9526 37.99 98.78C37.8574 98.7442 37.7445 98.6572 37.676 98.5381C37.6076 98.419 37.5892 98.2776 37.625 98.145C37.6608 98.0124 37.7479 97.8994 37.8669 97.831C37.986 97.7625 38.1274 97.7442 38.26 97.78C38.9464 97.9738 39.6154 98.2247 40.26 98.53C40.377 98.5882 40.4665 98.6898 40.5095 98.8131C40.5525 98.9365 40.5455 99.0717 40.49 99.19C40.4382 99.2705 40.3647 99.3347 40.2781 99.3754C40.1914 99.416 40.0951 99.4315 40 99.42V99.46ZM30.21 98.88C30.1014 98.8817 29.9954 98.8472 29.9085 98.7821C29.8216 98.7169 29.7588 98.6247 29.73 98.52C29.6925 98.394 29.7061 98.2583 29.7678 98.1423C29.8296 98.0263 29.9346 97.9392 30.06 97.9C30.7146 97.6981 31.383 97.5444 32.06 97.44C32.1257 97.4295 32.1928 97.432 32.2575 97.4474C32.3222 97.4629 32.3832 97.4909 32.437 97.5299C32.4909 97.5689 32.5365 97.6181 32.5714 97.6747C32.6062 97.7314 32.6295 97.7943 32.64 97.86C32.6505 97.9257 32.648 97.9928 32.6326 98.0574C32.6172 98.1221 32.5892 98.1831 32.5502 98.237C32.5112 98.2908 32.4619 98.3365 32.4053 98.3713C32.3486 98.4062 32.2857 98.4295 32.22 98.44C31.5813 98.5464 30.9501 98.6933 30.33 98.88H30.21ZM34 96.1C33.9307 96.1137 33.8594 96.1137 33.79 96.1C33.6695 96.0454 33.5756 95.9453 33.5287 95.8216C33.4819 95.6979 33.4859 95.5607 33.54 95.44C33.8279 94.8094 34.1621 94.2011 34.54 93.62C34.6103 93.5073 34.7225 93.4271 34.8519 93.3971C34.9813 93.3671 35.1173 93.3897 35.23 93.46C35.3428 93.5303 35.4229 93.6425 35.4529 93.7719C35.4829 93.9013 35.4603 94.0373 35.39 94.15C35.0468 94.6961 34.7395 95.264 34.47 95.85C34.4241 95.9325 34.3553 96 34.2719 96.0444C34.1886 96.0887 34.0941 96.1081 34 96.1ZM36.11 92.7C35.9974 92.6986 35.8884 92.6599 35.8 92.59C35.7476 92.5491 35.7038 92.4981 35.6713 92.44C35.6388 92.3819 35.6182 92.3179 35.6108 92.2518C35.6033 92.1857 35.6092 92.1187 35.6279 92.0549C35.6467 91.9911 35.678 91.9316 35.72 91.88C36.13 91.36 36.59 90.88 37.07 90.34C37.1629 90.2445 37.2898 90.1898 37.423 90.188C37.5561 90.1861 37.6846 90.2372 37.78 90.33C37.8755 90.4228 37.9302 90.5498 37.9321 90.6829C37.934 90.8161 37.8829 90.9445 37.79 91.04C37.3356 91.508 36.905 91.9986 36.5 92.51C36.4504 92.5705 36.3877 92.619 36.3168 92.6519C36.2458 92.6848 36.1683 92.7012 36.09 92.7H36.11ZM39.28 89.63L38.89 89.31L38.56 88.93C39.12 88.45 39.62 88.04 40.13 87.64C40.2349 87.5594 40.3674 87.5236 40.4986 87.5404C40.6298 87.5573 40.749 87.6255 40.83 87.73C40.8713 87.7814 40.9017 87.8406 40.9195 87.904C40.9374 87.9674 40.9423 88.0338 40.9339 88.0991C40.9254 88.1645 40.9039 88.2275 40.8706 88.2843C40.8373 88.3412 40.7929 88.3907 40.74 88.43C40.23 88.82 39.74 89.21 39.26 89.63H39.28ZM42.07 87.37C41.9876 87.3692 41.9065 87.3489 41.8335 87.3107C41.7605 87.2724 41.6976 87.2173 41.65 87.15C41.5771 87.0382 41.551 86.9023 41.5771 86.7714C41.6033 86.6406 41.6798 86.5252 41.79 86.45C42.35 86.07 42.92 85.71 43.51 85.37C43.623 85.3035 43.7576 85.2841 43.8848 85.3159C44.012 85.3477 44.1216 85.4282 44.19 85.54C44.257 85.6545 44.2767 85.7907 44.245 85.9195C44.2133 86.0483 44.1326 86.1597 44.02 86.23C43.4534 86.5633 42.8934 86.9133 42.34 87.28C42.2563 87.342 42.1541 87.3737 42.05 87.37H42.07ZM45.52 85.37C45.4276 85.37 45.3369 85.3449 45.2576 85.2973C45.1784 85.2498 45.1135 85.1816 45.07 85.1C45.0107 84.9819 45.0006 84.8451 45.0418 84.7196C45.083 84.5941 45.1723 84.4899 45.29 84.43C45.9 84.12 46.51 83.83 47.13 83.55C47.2523 83.4992 47.3895 83.4979 47.5126 83.5465C47.6358 83.595 47.7353 83.6895 47.79 83.81C47.8165 83.8704 47.8308 83.9354 47.8321 84.0013C47.8333 84.0672 47.8215 84.1327 47.7973 84.1941C47.7732 84.2554 47.7371 84.3114 47.6912 84.3587C47.6454 84.4061 47.5906 84.4439 47.53 84.47C46.93 84.73 46.33 85.02 45.75 85.32C45.6682 85.3398 45.5832 85.3431 45.5 85.33L45.52 85.37ZM49.19 83.75C49.0574 83.7739 48.9208 83.7441 48.8101 83.6672C48.6995 83.5903 48.6239 83.4726 48.6 83.34C48.5762 83.2074 48.6059 83.0707 48.6828 82.9601C48.7597 82.8494 48.8774 82.7739 49.01 82.75C49.64 82.51 50.28 82.29 50.93 82.08C51.056 82.039 51.1931 82.0497 51.3112 82.1096C51.4294 82.1696 51.5188 82.2741 51.56 82.4C51.5979 82.5273 51.5846 82.6644 51.523 82.782C51.4613 82.8997 51.3562 82.9886 51.23 83.03C50.6 83.23 49.98 83.45 49.36 83.68C49.3011 83.7086 49.2349 83.7191 49.17 83.71L49.19 83.75ZM53 82.51C52.8914 82.5117 52.7854 82.4772 52.6985 82.4121C52.6116 82.3469 52.5488 82.2547 52.52 82.15C52.486 82.0214 52.5036 81.8846 52.5689 81.7688C52.6343 81.653 52.7424 81.5673 52.87 81.53C53.52 81.36 54.18 81.19 54.87 81.05C54.9344 81.0353 55.001 81.0334 55.0661 81.0446C55.1312 81.0557 55.1934 81.0796 55.2492 81.115C55.305 81.1503 55.3533 81.1963 55.3912 81.2504C55.4291 81.3045 55.4559 81.3655 55.47 81.43C55.4847 81.4937 55.4864 81.5598 55.4752 81.6242C55.4639 81.6886 55.4399 81.7501 55.4045 81.8051C55.369 81.8601 55.323 81.9075 55.269 81.9444C55.215 81.9813 55.1541 82.007 55.09 82.02C54.44 82.17 53.8 82.32 53.16 82.5L53 82.51ZM78.9 81.75H78.82L76.82 81.47C76.7555 81.4626 76.6931 81.4424 76.6364 81.4107C76.5797 81.3789 76.5299 81.3362 76.4899 81.285C76.4499 81.2338 76.4205 81.1752 76.4033 81.1125C76.3862 81.0499 76.3817 80.9844 76.39 80.92C76.4075 80.7881 76.4759 80.6683 76.5805 80.5861C76.6851 80.5039 76.8177 80.4658 76.95 80.48L78.95 80.76C79.0826 80.7693 79.2061 80.8309 79.2933 80.9312C79.3805 81.0315 79.4243 81.1624 79.415 81.295C79.4057 81.4276 79.3442 81.5511 79.2438 81.6383C79.1435 81.7255 79.0126 81.7693 78.88 81.76L78.9 81.75ZM56.9 81.64C56.8344 81.6459 56.7682 81.6388 56.7053 81.6192C56.6423 81.5995 56.5839 81.5676 56.5333 81.5254C56.4311 81.44 56.367 81.3176 56.355 81.185C56.3431 81.0524 56.3843 80.9205 56.4697 80.8183C56.555 80.7161 56.6774 80.6519 56.81 80.64C57.47 80.52 58.14 80.42 58.81 80.32C58.9424 80.3028 59.0763 80.3382 59.1828 80.4186C59.2894 80.499 59.3602 80.618 59.38 80.75C59.3971 80.8812 59.3614 81.0139 59.2808 81.1189C59.2002 81.2238 59.0812 81.2926 58.95 81.31L56.95 81.62L56.9 81.64ZM74.9 81.23H74.84L72.84 81.04C72.7074 81.0294 72.5845 80.9665 72.4982 80.8653C72.4119 80.764 72.3694 80.6326 72.38 80.5C72.3907 80.3674 72.4535 80.2444 72.5548 80.1582C72.656 80.0719 72.7874 80.0294 72.92 80.04C73.59 80.09 74.26 80.15 74.92 80.23C75.0511 80.2451 75.1709 80.3113 75.2533 80.4144C75.3357 80.5174 75.3741 80.6488 75.36 80.78C75.3419 80.8907 75.2863 80.9917 75.2026 81.0664C75.1188 81.141 75.012 81.1846 74.9 81.19V81.23ZM60.9 81.09C60.7674 81.0966 60.6376 81.0503 60.5392 80.9612C60.4407 80.8721 60.3817 80.7476 60.375 80.615C60.3684 80.4824 60.4147 80.3526 60.5038 80.2541C60.5929 80.1557 60.7174 80.0966 60.85 80.09C61.52 80.02 62.2 79.96 62.85 79.92C62.9163 79.913 62.9833 79.92 63.0467 79.9403C63.1102 79.9607 63.1687 79.994 63.2186 80.0383C63.2684 80.0825 63.3085 80.1366 63.3363 80.1971C63.3641 80.2577 63.379 80.3234 63.38 80.39C63.3883 80.521 63.3447 80.6501 63.2586 80.7493C63.1726 80.8484 63.0509 80.9098 62.92 80.92C62.25 80.92 61.59 81.02 60.92 81.08L60.9 81.09ZM70.9 80.91C70.24 80.91 69.57 80.85 68.9 80.83C68.8344 80.8287 68.7696 80.8145 68.7094 80.7881C68.6493 80.7618 68.5949 80.7239 68.5494 80.6765C68.5039 80.6292 68.4682 80.5733 68.4443 80.5121C68.4203 80.4509 68.4087 80.3857 68.41 80.32C68.4198 80.1899 68.4773 80.0679 68.5714 79.9775C68.6655 79.8871 68.7896 79.8346 68.92 79.83C69.6 79.83 70.27 79.83 70.92 79.91C71.0536 79.9178 71.1787 79.9776 71.2685 80.0768C71.3583 80.1759 71.4055 80.3064 71.4 80.44C71.3831 80.5601 71.323 80.67 71.231 80.7491C71.139 80.8282 71.0214 80.8712 70.9 80.87V80.91ZM64.9 80.83C64.7674 80.83 64.6403 80.7773 64.5465 80.6835C64.4527 80.5898 64.4 80.4626 64.4 80.33C64.4 80.1974 64.4527 80.0702 64.5465 79.9764C64.6403 79.8827 64.7674 79.83 64.9 79.83H66.9C67.0326 79.83 67.1598 79.8827 67.2536 79.9764C67.3474 80.0702 67.4 80.1974 67.4 80.33C67.4014 80.3952 67.3897 80.46 67.3657 80.5206C67.3416 80.5812 67.3057 80.6364 67.2601 80.683C67.2145 80.7295 67.16 80.7665 67.0999 80.7918C67.0398 80.817 66.9752 80.83 66.91 80.83C66.24 80.83 65.58 80.83 64.91 80.83H64.9Z" fill="#8BCEAF"/>
<path d="M12.77 118.47H12.61C12.4859 118.427 12.3838 118.336 12.3258 118.219C12.2678 118.101 12.2585 117.965 12.3 117.84C12.41 117.52 12.52 117.2 12.64 116.84C12.6871 116.717 12.7807 116.618 12.9004 116.564C13.0202 116.509 13.1566 116.504 13.28 116.55C13.4046 116.595 13.5062 116.688 13.5624 116.808C13.6187 116.928 13.625 117.065 13.58 117.19C13.46 117.503 13.35 117.813 13.25 118.12C13.2179 118.222 13.154 118.311 13.0676 118.374C12.9812 118.437 12.8769 118.471 12.77 118.47Z" fill="#8BCEAF"/>
<path d="M69.1898 67.27C69.0736 67.2677 68.9618 67.2258 68.8727 67.1512C68.7835 67.0767 68.7226 66.9739 68.6998 66.86C68.6764 66.7301 68.7054 66.5962 68.7803 66.4876C68.8552 66.3789 68.9701 66.3043 69.0998 66.28C69.4078 66.2146 69.7091 66.1209 69.9998 66C70.0609 65.9756 70.1261 65.9636 70.1919 65.9645C70.2576 65.9654 70.3225 65.9792 70.3829 66.0052C70.4432 66.0312 70.4979 66.0689 70.5437 66.116C70.5895 66.1632 70.6256 66.2189 70.6498 66.28C70.6963 66.4035 70.6931 66.5403 70.6409 66.6615C70.5887 66.7827 70.4915 66.8789 70.3698 66.93C70.0291 67.0602 69.6778 67.1606 69.3198 67.23L69.1898 67.27Z" fill="#8BCEAF"/>
<path d="M67.2296 67.34C66.5532 67.2661 65.8842 67.1356 65.2296 66.95C65.1639 66.9329 65.1023 66.9031 65.0482 66.8622C64.994 66.8213 64.9485 66.7701 64.9141 66.7116C64.8798 66.6531 64.8573 66.5884 64.8479 66.5213C64.8386 66.4541 64.8425 66.3857 64.8596 66.32C64.8767 66.2544 64.9065 66.1927 64.9474 66.1386C64.9883 66.0844 65.0395 66.0389 65.098 66.0045C65.1565 65.9702 65.2212 65.9477 65.2884 65.9383C65.3556 65.929 65.424 65.9329 65.4896 65.95C66.0989 66.1176 66.7211 66.2347 67.3496 66.3C67.4154 66.3063 67.4793 66.3255 67.5376 66.3566C67.5959 66.3877 67.6475 66.43 67.6893 66.4812C67.7312 66.5323 67.7625 66.5912 67.7814 66.6545C67.8003 66.7179 67.8065 66.7843 67.7996 66.85C67.8006 66.9217 67.7858 66.9927 67.7563 67.058C67.7269 67.1234 67.6834 67.1814 67.6291 67.2282C67.5747 67.2749 67.5108 67.3091 67.4418 67.3284C67.3727 67.3478 67.3003 67.3517 67.2296 67.34ZM63.3996 66.34C63.3433 66.3495 63.2859 66.3495 63.2296 66.34L61.3696 65.67C61.3061 65.6491 61.2475 65.6156 61.1972 65.5716C61.1468 65.5276 61.1059 65.4739 61.0766 65.4138C61.0474 65.3537 61.0305 65.2883 61.027 65.2215C61.0235 65.1548 61.0334 65.088 61.0561 65.0251C61.0789 64.9623 61.114 64.9046 61.1594 64.8555C61.2048 64.8065 61.2596 64.767 61.3205 64.7395C61.3814 64.712 61.4473 64.697 61.5141 64.6953C61.5809 64.6937 61.6474 64.7055 61.7096 64.73L63.5696 65.4C63.6353 65.4112 63.6981 65.4352 63.7545 65.4706C63.8109 65.506 63.8597 65.5522 63.8983 65.6066C63.9368 65.6609 63.9643 65.7223 63.9791 65.7872C63.9939 65.8521 63.9958 65.9194 63.9846 65.985C63.9735 66.0507 63.9495 66.1135 63.914 66.1699C63.8786 66.2263 63.8324 66.2751 63.7781 66.3137C63.7237 66.3522 63.6624 66.3797 63.5974 66.3945C63.5325 66.4093 63.4653 66.4112 63.3996 66.4V66.34ZM59.6796 65C59.6233 65.0095 59.5659 65.0095 59.5096 65L57.6496 64.3C57.588 64.2778 57.5314 64.2435 57.4833 64.199C57.4352 64.1546 57.3965 64.1009 57.3694 64.0413C57.3424 63.9816 57.3276 63.9171 57.3259 63.8516C57.3242 63.7861 57.3357 63.721 57.3596 63.66C57.3829 63.598 57.4183 63.5413 57.4636 63.4931C57.509 63.4448 57.5635 63.4061 57.624 63.3791C57.6845 63.3522 57.7497 63.3375 57.8159 63.3359C57.8821 63.3343 57.9479 63.3459 58.0096 63.37L59.8596 64.06C59.9824 64.1071 60.0817 64.2007 60.136 64.3205C60.1903 64.4403 60.1952 64.5766 60.1496 64.7C60.1123 64.7927 60.0469 64.8715 59.9626 64.9253C59.8784 64.979 59.7794 65.0052 59.6796 65ZM55.9996 63.61C55.9372 63.6249 55.8721 63.6249 55.8096 63.61C55.1996 63.37 54.5796 63.12 53.9696 62.86C53.8497 62.8071 53.7548 62.7101 53.7045 62.5891C53.6542 62.468 53.6525 62.3323 53.6996 62.21C53.7545 62.0894 53.8534 61.9942 53.976 61.9441C54.0987 61.8939 54.2359 61.8924 54.3596 61.94C54.9596 62.2 55.5696 62.44 56.1796 62.68C56.2407 62.7043 56.2964 62.7403 56.3436 62.7861C56.3907 62.8319 56.4284 62.8866 56.4544 62.9469C56.4804 63.0073 56.4943 63.0722 56.4952 63.138C56.4961 63.2037 56.484 63.269 56.4596 63.33C56.4187 63.4165 56.3533 63.4891 56.2715 63.5389C56.1898 63.5886 56.0953 63.6134 55.9996 63.61ZM52.3496 62.08C52.2838 62.095 52.2154 62.095 52.1496 62.08L50.3396 61.25C50.2796 61.2221 50.2257 61.1826 50.181 61.1337C50.1364 61.0848 50.1019 61.0275 50.0796 60.9652C50.0572 60.9028 50.0475 60.8367 50.051 60.7706C50.0544 60.7045 50.0709 60.6397 50.0996 60.58C50.158 60.4606 50.2607 60.3687 50.3858 60.3238C50.511 60.279 50.6487 60.2848 50.7696 60.34C51.3596 60.63 51.9496 60.9 52.5496 61.16C52.6822 61.1865 52.7989 61.2646 52.8739 61.3772C52.9489 61.4897 52.9761 61.6274 52.9496 61.76C52.9231 61.8926 52.845 62.0093 52.7325 62.0843C52.6199 62.1593 52.4822 62.1865 52.3496 62.16V62.08ZM48.7796 60.38C48.699 60.3805 48.6197 60.3598 48.5496 60.32C47.9596 60.02 47.3696 59.71 46.7896 59.38C46.7316 59.3488 46.6804 59.3061 46.6393 59.2547C46.5981 59.2032 46.5677 59.1439 46.55 59.0804C46.5322 59.0169 46.5275 58.9505 46.536 58.8852C46.5445 58.8198 46.5662 58.7568 46.5996 58.7C46.6647 58.5848 46.7729 58.5001 46.9003 58.4645C47.0278 58.4289 47.1642 58.4452 47.2796 58.51C47.8496 58.83 48.4296 59.14 49.0096 59.44C49.068 59.4696 49.1199 59.5105 49.1622 59.5604C49.2045 59.6103 49.2364 59.6682 49.256 59.7307C49.2756 59.7931 49.2824 59.8589 49.2762 59.924C49.2699 59.9892 49.2507 60.0524 49.2196 60.11C49.177 60.1923 49.1123 60.2611 49.0329 60.3088C48.9534 60.3565 48.8623 60.3811 48.7696 60.38H48.7796ZM45.3296 58.45C45.2387 58.447 45.1497 58.4231 45.0696 58.38C44.4996 58.03 43.9396 57.67 43.3796 57.3C43.3247 57.2629 43.2778 57.2152 43.2415 57.1598C43.2052 57.1044 43.1803 57.0423 43.1682 56.9772C43.1561 56.9121 43.1571 56.8452 43.1711 56.7804C43.185 56.7157 43.2117 56.6544 43.2496 56.6C43.2858 56.5455 43.3325 56.4987 43.3871 56.4626C43.4416 56.4264 43.5029 56.4015 43.5672 56.3894C43.6315 56.3773 43.6976 56.3782 43.7616 56.392C43.8255 56.4059 43.8861 56.4324 43.9396 56.47C44.4796 56.83 45.0296 57.1633 45.5896 57.47C45.6842 57.5261 45.7577 57.6119 45.7986 57.7139C45.8395 57.816 45.8457 57.9287 45.816 58.0347C45.7864 58.1406 45.7227 58.2338 45.6348 58.2998C45.5468 58.3659 45.4396 58.4011 45.3296 58.4V58.45ZM41.9996 56.24C41.8911 56.2423 41.7851 56.207 41.6996 56.14L41.0996 55.68C40.7696 55.43 40.4396 55.17 40.0996 54.9C40.0491 54.858 40.0073 54.8064 39.9766 54.7482C39.946 54.6901 39.9271 54.6264 39.9211 54.561C39.9151 54.4955 39.922 54.4295 39.9415 54.3667C39.9609 54.3039 39.9926 54.2456 40.0346 54.195C40.0766 54.1445 40.1282 54.1027 40.1864 54.072C40.2446 54.0414 40.3082 54.0225 40.3737 54.0165C40.4391 54.0105 40.5051 54.0174 40.5679 54.0369C40.6307 54.0563 40.6891 54.088 40.7396 54.13C41.0596 54.39 41.3696 54.65 41.7396 54.89L42.3296 55.34C42.4136 55.403 42.4756 55.4908 42.5069 55.5909C42.5382 55.6911 42.5371 55.7986 42.504 55.8981C42.4708 55.9977 42.4071 56.0843 42.322 56.1456C42.2368 56.207 42.1346 56.24 42.0296 56.24H41.9996ZM38.9996 53.71C38.8728 53.7072 38.7516 53.6573 38.6596 53.57C38.1696 53.11 37.6596 52.64 37.2396 52.15C37.193 52.1044 37.1561 52.0499 37.1308 51.9898C37.1055 51.9297 37.0925 51.8652 37.0925 51.8C37.0925 51.7348 37.1055 51.6703 37.1308 51.6102C37.1561 51.5501 37.193 51.4956 37.2396 51.45C37.2861 51.4031 37.3414 51.3659 37.4023 51.3406C37.4633 51.3152 37.5286 51.3021 37.5946 51.3021C37.6606 51.3021 37.726 51.3152 37.7869 51.3406C37.8478 51.3659 37.9031 51.4031 37.9496 51.45C38.3896 51.92 38.8496 52.38 39.3296 52.82C39.3765 52.8665 39.4137 52.9218 39.4391 52.9827C39.4644 53.0437 39.4775 53.109 39.4775 53.175C39.4775 53.241 39.4644 53.3064 39.4391 53.3673C39.4137 53.4282 39.3765 53.4835 39.3296 53.53C39.2892 53.5803 39.2392 53.622 39.1826 53.6529C39.1259 53.6838 39.0638 53.7032 38.9996 53.71ZM36.2896 50.83C36.2168 50.8308 36.1447 50.815 36.0789 50.7838C36.013 50.7526 35.9551 50.7069 35.9096 50.65C35.4796 50.14 35.0596 49.65 34.6696 49.07C34.5937 48.9618 34.5627 48.8284 34.5832 48.6978C34.6037 48.5672 34.6741 48.4497 34.7796 48.37C34.8327 48.3311 34.893 48.3031 34.957 48.2876C35.021 48.2721 35.0874 48.2694 35.1525 48.2796C35.2175 48.2898 35.2799 48.3128 35.336 48.3472C35.3922 48.3816 35.441 48.4267 35.4796 48.48C35.8596 49 36.2596 49.48 36.6696 50.01C36.7543 50.1128 36.7954 50.2446 36.7842 50.3772C36.773 50.5099 36.7103 50.6329 36.6096 50.72C36.5175 50.79 36.4053 50.8286 36.2896 50.83ZM33.9696 47.63C33.8844 47.6306 33.8005 47.6099 33.7253 47.5697C33.6502 47.5296 33.5864 47.4712 33.5396 47.4C33.1796 46.83 32.8396 46.24 32.5396 45.65C32.4786 45.532 32.467 45.3946 32.5073 45.268C32.5476 45.1414 32.6366 45.036 32.7546 44.975C32.8726 44.914 33.0101 44.9024 33.1366 44.9427C33.2632 44.983 33.3686 45.072 33.4296 45.19C33.7296 45.75 34.0496 46.31 34.4296 46.87C34.4645 46.9258 34.4881 46.9879 34.4989 47.0528C34.5098 47.1177 34.5077 47.1841 34.4929 47.2482C34.478 47.3123 34.4506 47.3729 34.4123 47.4264C34.374 47.4799 34.3255 47.5253 34.2696 47.56C34.1885 47.6096 34.0946 47.6339 33.9996 47.63H33.9696ZM32.1196 44.14C32.022 44.1404 31.9265 44.1121 31.8447 44.0588C31.763 44.0055 31.6987 43.9294 31.6596 43.84C31.3863 43.2067 31.1463 42.5767 30.9396 41.95C30.9091 41.8863 30.8924 41.8168 30.8907 41.7462C30.889 41.6756 30.9022 41.6054 30.9296 41.5402C30.957 41.4751 30.9979 41.4165 31.0496 41.3683C31.1012 41.3201 31.1625 41.2835 31.2294 41.2607C31.2963 41.2379 31.3673 41.2296 31.4376 41.2362C31.5079 41.2429 31.5761 41.2644 31.6375 41.2993C31.6989 41.3341 31.7523 41.3817 31.794 41.4387C31.8357 41.4957 31.8649 41.5609 31.8796 41.63C32.0796 42.23 32.3196 42.84 32.5796 43.44C32.6304 43.5623 32.6317 43.6995 32.5832 43.8226C32.5346 43.9458 32.4401 44.0453 32.3196 44.1C32.2552 44.1229 32.1879 44.1364 32.1196 44.14ZM30.8596 40.39C30.7483 40.3906 30.6402 40.3533 30.553 40.2842C30.4657 40.2151 30.4046 40.1184 30.3796 40.01C30.2189 39.3503 30.0921 38.6827 29.9996 38.01C29.9898 37.9448 29.9932 37.8783 30.0097 37.8145C30.0262 37.7507 30.0553 37.6908 30.0955 37.6385C30.1356 37.5863 30.1859 37.5426 30.2433 37.5102C30.3007 37.4778 30.3641 37.4573 30.4296 37.45C30.5594 37.4328 30.6907 37.4671 30.7954 37.5457C30.9001 37.6242 30.9698 37.7406 30.9896 37.87C31.0796 38.5 31.1996 39.14 31.3496 39.77C31.377 39.8984 31.3539 40.0325 31.285 40.1442C31.216 40.256 31.1067 40.3369 30.9796 40.37L30.8596 40.39Z" fill="#8BCEAF"/>
<path d="M30.3198 36.46C30.1906 36.4601 30.0664 36.4102 29.9731 36.3207C29.8799 36.2312 29.825 36.1091 29.8198 35.98C29.8198 35.64 29.8198 35.3 29.8198 34.98C29.8169 34.914 29.8278 34.8481 29.8521 34.7867C29.8763 34.7252 29.9132 34.6696 29.9604 34.6233C30.0075 34.5771 30.0639 34.5413 30.1259 34.5184C30.1878 34.4954 30.2539 34.4857 30.3198 34.49C30.4524 34.49 30.5796 34.5427 30.6734 34.6364C30.7671 34.7302 30.8198 34.8574 30.8198 34.99C30.8198 35.32 30.8198 35.64 30.8198 35.99C30.8225 36.0557 30.8122 36.1212 30.7895 36.1829C30.7668 36.2446 30.7322 36.3012 30.6876 36.3495C30.643 36.3978 30.5894 36.4369 30.5297 36.4644C30.47 36.4919 30.4055 36.5074 30.3398 36.51L30.3198 36.46Z" fill="#8BCEAF"/>
<path d="M31.4596 22.74C34.4429 20.0942 36.5324 16.5885 37.4404 12.7058C38.3484 8.8231 38.0302 4.75436 36.5296 1.06001C36.5296 1.06001 29.5296 1.24 27.2396 9.41C24.9496 17.58 31.4596 22.74 31.4596 22.74Z" fill="white"/>
<path d="M31.46 23.24C31.3465 23.2438 31.2358 23.2045 31.15 23.13C31.08 23.13 24.44 17.68 26.75 9.28C29.06 0.880003 36.44 0.560005 36.52 0.560005C36.6238 0.560814 36.725 0.592673 36.8106 0.651485C36.8961 0.710298 36.9621 0.793368 37 0.890003C38.5151 4.68583 38.8259 8.85582 37.8903 12.8343C36.9547 16.8128 34.818 20.4072 31.77 23.13C31.6843 23.2045 31.5735 23.2438 31.46 23.24ZM36.19 1.59C34.77 1.75 29.58 2.78 27.72 9.59C25.86 16.4 30.24 20.98 31.46 22.12C34.2341 19.5791 36.1715 16.256 37.0161 12.5902C37.8607 8.9244 37.5726 5.08856 36.19 1.59Z" fill="#8BCEAF"/>
<path d="M32.35 27.93C32.2487 27.9293 32.15 27.8986 32.0663 27.8416C31.9825 27.7846 31.9177 27.704 31.88 27.61C27.88 16.83 35.75 1.48001 36.08 0.830006C36.1436 0.713284 36.2503 0.626014 36.3773 0.586789C36.5043 0.547563 36.6416 0.559479 36.76 0.620003C36.876 0.681686 36.9631 0.786561 37.0024 0.911942C37.0417 1.03732 37.03 1.17314 36.97 1.29001C36.89 1.45001 28.97 16.9 32.82 27.29C32.8439 27.351 32.8554 27.4161 32.8537 27.4816C32.852 27.5471 32.8372 27.6116 32.8102 27.6713C32.7831 27.7309 32.7444 27.7846 32.6963 27.829C32.6482 27.8735 32.5916 27.9078 32.53 27.93C32.4704 27.9395 32.4096 27.9395 32.35 27.93Z" fill="#8BCEAF"/>
<path d="M19.1896 124.43C22.1717 127.077 24.2603 130.582 25.1682 134.465C26.0761 138.347 25.7587 142.415 24.2596 146.11C24.2596 146.11 17.2596 145.94 14.9696 137.76C12.6796 129.58 19.1896 124.43 19.1896 124.43Z" fill="white"/>
<path d="M24.26 146.61C24.19 146.61 16.82 146.33 14.5 137.89C12.18 129.45 18.82 124.09 18.89 124.04C18.979 123.968 19.0903 123.928 19.205 123.928C19.3197 123.928 19.4309 123.968 19.52 124.04C22.5659 126.766 24.7002 130.363 25.6339 134.343C26.5676 138.323 26.2555 142.493 24.74 146.29C24.7028 146.386 24.6367 146.469 24.5508 146.526C24.4648 146.583 24.3632 146.613 24.26 146.61ZM19.19 125.09C17.4677 126.628 16.2062 128.613 15.5459 130.825C14.8855 133.038 14.8523 135.39 15.45 137.62C17.32 144.39 22.51 145.43 23.92 145.62C25.2637 142.116 25.5314 138.29 24.6888 134.633C23.8462 130.976 21.9316 127.653 19.19 125.09Z" fill="#8BCEAF"/>
<path d="M24.2599 146.61C24.1689 146.609 24.0799 146.584 24.0023 146.536C23.9248 146.489 23.8617 146.421 23.8199 146.34C23.4799 145.69 15.6499 130.34 19.6199 119.56C19.667 119.437 19.7606 119.338 19.8803 119.284C20.0001 119.229 20.1365 119.224 20.2599 119.27C20.3845 119.315 20.4861 119.408 20.5423 119.528C20.5986 119.648 20.6049 119.785 20.5599 119.91C16.7399 130.28 24.6299 145.73 24.7099 145.91C24.7692 146.028 24.7793 146.165 24.7381 146.29C24.6969 146.416 24.6076 146.52 24.4899 146.58C24.417 146.609 24.3378 146.62 24.2599 146.61Z" fill="#8BCEAF"/>
<path d="M23.1396 64.17C19.9715 66.5909 16.131 67.9706 12.1465 68.1193C8.16201 68.2679 4.22938 67.1782 0.889648 65C0.889648 65 2.39965 58.13 10.8896 57.48C19.3796 56.83 23.1396 64.17 23.1396 64.17Z" fill="white"/>
<path d="M11.3899 68.64C7.57004 68.6 3.83829 67.4877 0.619861 65.43C0.532132 65.376 0.463654 65.2957 0.424159 65.2006C0.384665 65.1054 0.376162 65.0003 0.39986 64.9C0.39986 64.82 2.08986 57.65 10.8199 56.98C19.5499 56.31 23.5399 63.86 23.5799 63.98C23.6335 64.0799 23.6509 64.1952 23.629 64.3065C23.6071 64.4177 23.5473 64.5179 23.4599 64.59C19.9709 67.1918 15.742 68.6108 11.3899 68.64ZM1.46986 64.77C4.63445 66.7833 8.33455 67.7912 12.083 67.6609C15.8315 67.5306 19.4527 66.2682 22.4699 64.04C21.2875 62.0627 19.5805 60.4516 17.5382 59.3854C15.4959 58.3193 13.1981 57.8397 10.8999 58C3.89986 58.51 1.88986 63.41 1.46986 64.77Z" fill="#8BCEAF"/>
<path d="M27.5698 66.44C27.4783 66.442 27.388 66.4177 27.3098 66.37C17.8698 60.64 1.19984 65.43 1.02984 65.48C0.897227 65.5171 0.755304 65.5001 0.635281 65.4326C0.515258 65.365 0.426966 65.2526 0.389836 65.12C0.352706 64.9874 0.369778 64.8455 0.437291 64.7254C0.504804 64.6054 0.617228 64.5171 0.749837 64.48C1.44984 64.28 17.9998 59.48 27.8298 65.48C27.9197 65.538 27.9887 65.6233 28.0265 65.7234C28.0643 65.8235 28.069 65.9331 28.0399 66.0361C28.0108 66.1391 27.9494 66.23 27.8648 66.2955C27.7802 66.361 27.6768 66.3976 27.5698 66.4V66.44Z" fill="#8BCEAF"/>
</svg>
